<?xml version="1.0" standalone="no"?><!DOCTYPE svg PUBLIC "-//W3C//DTD SVG 1.1//EN" "http://www.w3.org/Graphics/SVG/1.1/DTD/svg11.dtd"><svg t="1499922471941" class="icon" style="" viewBox="0 0 1024 1024" version="1.1" xmlns="http://www.w3.org/2000/svg" p-id="1651" xmlns:xlink="http://www.w3.org/1999/xlink" width="200" height="200"><defs><style type="text/css"></style></defs><path d="M573.2 251c0-34.5-27.9-62.6-62.4-62.6-34.4 0-62.4 28-62.4 62.6s27.9 62.6 62.4 62.6 62.4-28 62.4-62.6z m-62.4 436.6s228.9-226.7 228.9-425.2S510.8 64 510.8 64s-228.9 0-228.9 198.4 228.9 425.2 228.9 425.2zM350.4 235.3c1.5-6.6 4-12.9 6.5-19.1 0.9-2.2 1.4-4.5 2.4-6.6 2.7-5.8 6.2-11.1 9.7-16.5 1.7-2.7 3.1-5.4 5-8 2.8-3.7 6.1-6.9 9.3-10.4 3.6-4 7-8 11.1-11.7 1.7-1.5 3.8-2.8 5.6-4.3 6.1-5 12.3-9.7 19.3-13.8 0.2-0.2 0.5-0.2 0.7-0.4 16.8-9.8 36-17.2 57.5-20.9 10.7-1.9 21.8-2.9 33.1-2.9H510.9c11.5 0 22.8 1.1 33.6 3.1 5.9 1.1 11.3 3 16.9 4.5 4.8 1.3 9.7 2.4 14.3 4.1 4.7 1.8 8.8 4.1 13.3 6.2 5.3 2.5 10.6 4.8 15.5 7.8 2.2 1.4 4.1 3 6.2 4.4 30.9 20.8 53.1 50.6 60.7 85.2 2 8.7 3.1 17.6 3.1 26.4 0 141.7-163.5 340.1-163.5 340.1S347.3 404.1 347.3 262.4c0-9.1 1.1-18.2 3.1-27.1z m576.7 244.4c-3.5-17.3-104.1 6.9-145.7 20.8 0 0-19.2 55.5 0 62.4 23.4 8.3 83.3-20.8 83.3-20.8v270.2s-211.6 86.6-228.9 83.1c-17.3-3.5-228.9-93.5-249.8-83.1-20.9 10.4-229 62.3-229 62.3V604.4s96.3-23.6 104.1-41.6c9.3-21.8 6.9-72.8-62.4-41.6-69.4 31.2-104.1 62.4-104.1 62.4v332.6s20.8 55.4 62.4 41.6c41.6-13.9 228.9-83.2 228.9-83.2s222 79.7 249.8 83.2c27.8 3.5 290.5-76.9 291.4-103.9 2.8-91.3 3.4-356.9 0-374.2z" fill="#515151" p-id="1652"></path></svg>